/* XPM */
static char *_2ffec3fa9cc454cabaf26fd507e3330TV4PSJIkN2Wf8ZrG[] = {
/* columns rows colors chars-per-pixel */
"64 64 10 1 ",
"  c #1B5E20",
". c #2E7D32",
"X c #464646",
"o c #22B14C",
"O c #00C853",
"+ c #A8E61D",
"@ c #00B7EF",
"# c #D3F9BC",
"$ c #FFF9BD",
"% c #99D9EA",
/* pixels */
"...XXXXXXXXXXXXXX####XXXXXXXXXXXXXX..XXXXXXXX....XXXXXXOOOOOOOOO",
"..XXXXXXXXXXXXXXXX##XXXXXXXXXXXXXXXX.XXXXXXXX...XXXXXXXXOOOOOOOO",
".XXXXXXXXXXXXXXXXXXXXXXXXXX##XXXXXXXXXXXXXXXX..XXXXXXXXXXOOOOOOO",
"XXXXXXXXooooXXXXXXXXXXXXX######XXXXXXXXXXXXXXX.XXXXXXXXXXOOOOOOO",
"XXXXXXooooooooXXXXXXXXXX########XXXXXXXXXXXXXXXXXXXXXXXXXXOOOOOO",
"XXXXXooooooooooXXXXXXXX##########XXXXXXXXXXXXXXXXXXooXXXXXOOOOOO",
"XXXXooooooooooooXXXXXXX##########XXXXXXX##XXXXXXXXXooXXXXXOOOOOO",
"XXXooooooooooooooXXXXX############XXXXXX##XXXXXXXXooooXXXXXOOOOO",
"XXXooooooooooooooXXXXX############XXXXXX##XXXXXXXXooooXXXXXOOOOO",
"XXoooooooooooooooXXXXX#############XXXXX##XXXXXXXXooooXXXXXOOOOO",
"XXoooooooooooooooXXXXX#############XXXX####XXXXXXooooooXXXXOOOOO",
"XXXooooooooooooooXXXXX#############XXXX####XXXXXXooooooXXXXOOOOO",
"XXXooooooooooooooXXXXX#############XXXX####XXXXXXooooooXXXXXOOOO",
"XXXXooooooooooooXXXXXX#############XXXX####XXXXXXooooooXXXXXOOOO",
"XXXXXooooooooooXXXXXXX############XXXXX####XXXXXXooooooXXXXXOOOO",
"XXXXXXooooooooXXXXXXXX############XXXXX####XXXXXooooooooXXXXOOOO",
"XXXXXXXXooooXXXXXXXXXXX##########XXXXXX####XXXXXooooooooXXXXOOOO",
"+XXXXXXXXXXXXXXXXXXXXXX##########XXXXXX####XXXXXooooooooXXXXOOOO",
"++XXXXXXXXXXXXXXXXXXXXXX########XXXXXXX####XXXXXooooooooXXXXOOOO",
"+++XXXXXXXXXXXXXX++XXXXXX######XXXXXXXX####XXXXXooooooooXXXXOOOO",
"+++++XXXXXXXXXX++++XXXXXXXX##XXXXXXXXXX####XXXXXooooooooXXXXOOOO",
"++++++++++++++++++XXXXXXXXXXXXXXXXXXXXXX##XXXXXXooooooooXXXXOOOO",
"+++++XXXXXX+++++++XXXXXXXXXXXXXXXXXXXXXX##XXXXXXooooooooXXXXOOOO",
"++++XXXXXXXX+++++XXXXXXXXXXXXXXXXXoXXXXX##XXXXXXooooooooXXXXOOOO",
"+++XXXXXXXXXX++++XXXXXXXXXXXXXXXooooXXXX##XXXXXXooooooooXXXXOOOO",
"+++XXXXXXXXXX++++XXXXXXXXXXoooooooooXXXXXXXXXXXXooooooooXXXXXOOO",
"++XXXXXXXXXXXX+++XXXX##XXXXoooooooooXXXXXXXXXXXXooooooooXXXXXOOO",
"++XXXXX  XXXXX++XXXXX##XXXXXooooooooXXXXXXXXXXXXooooooooXXXXXOOO",
"++XXXXX  XXXXX++XXXXX##XXXXXoooooooooXXXXXXXXXXXooooooooXXXXXOOO",
"+XXXXX    XXXXX+XXXXX##XXXXXoooooooooXXXXXXXXXXXooooooooXXXXOOOO",
"+XXXXX    XXXXX+XXXX####XXXXoooooooooXXXXXXXXXXXooooooooXXXXOOOO",
"+XXXXX    XXXXX+XXXX####XXXXooooooooooXXXXXXXXXXooooooooXXXXOOOO",
"+XXXX      XXXX+XXXX####XXXXooooooooooooooooXXXXooooooooXXXXOOOO",
"+XXXX      XXXX+XXXX####XXXXooooooXXXXXXXXooXXXXooooooooXXXXOOOO",
"+XXXX      XXXX+XXXX####XXXXooooXXXXXXXXXXXXXXXXooooooooXXXXOOOO",
"+XXXX      XXXX+XXXX####XXXXoooXXXXXXXXXXXXXXXXXooooooooXXXXOOOO",
"+XXXX      XXXX+XXXX####XXXXooXXXXXXXXXXXXXXXXXXooooooooXXXXOOOO",
"+XXXX      XXXX+XXXX####XXXXoXXXXXXXX%%XXXXXXXXXooooooooXXXXOOOO",
"+XXXXX    XXXXX+XXXX####XXXXoXXXXXX%%%%%%XXXXXXXooooooooXXXXOOOO",
"+XXXXX    XXXXX+XXXX####XXXXXXXXXX%%%%%%%%XXXXXXXooooooXXXXXOOOO",
"+XXXXX    XXXXX+XXXXX##XXXXXXXXXX%%%%%%%%%%XXXXXXooooooXXXXXOOOO",
"++XXXXX  XXXXX++XXXXX##XXXXXXXXXX%%%%%%%%%%XXXXXXooooooXXXXXOOOO",
"++XXXXX  XXXXX++XXXXX##XXXXXXXXX%%%%%%%%%%%%XXXXXooooooXXXXOOOOO",
"++XXXXXXXXXXXX+++XXXX##XXXX@XXXX%%%%%%%%%%%%XXXXXooooooXXXXOOOOO",
"+++XXXXXXXXXX++++XXXXXXXXXX@XXXXX%%%%%%%%%%XXXXXXXooooXXXXXOOOOO",
"+++XXXXXXXXXX++++XXXXXXXXXX@XXXXX%%%%%%%%%%XXXXXXXooooXXXXXOOOOO",
"++++XXXXXXXXXXXXXXXXXXXXXXX@XXXXXX%%%%%%%%XXXXXXXXooooXXXXXOOOOO",
"+++++XXXXXXXXXXXXXXXXXXXXX@@@XXXXXX%%%%%%XXXXXXXXXXooXXXXXOOOOOO",
"++++XXXXXXXXXXXXXXXXXXXXXX@@@XXXXXXXX%%XXXXXXXXXXXXooXXXXXOOOOOO",
"++XXXXXXXXXXXXXXXXXXXXXXXXXX@@XXXXXXXXXXXXXXXXXXXXXXXXXXXXOOOOOO",
"+XXXXXXXXXXX$$$$$$XXXXXXXXXXX@@XXXXXXXXXXXXXX..XXXXXXXXXXOOOOOOO",
"+XXXXXXX$$$$$$$$$$$$$$XXXXXXX@@@XXXXXXXXXXXXXXXXXXXXXXXXXOOOOOOO",
"XXXXXXX$$$$$$$$$$$$$$$$XXXXXXX@@@XXXXXXXXXXXXXXXXXXXXXXXOOOOOOOO",
"XXXXX$$$$$$$$$$$$$$$$$$$$XXXXXXXXXXXXXXXXXXXXXXXXXXXXXXXXXOOOOOO",
"XXXXX$$$$$$$$$$$$$$$$$$$$XXXXXXXXXXXXXXXXXXXXXXXXXXXXXXXXXXOOOOO",
"XXXXX$$$$$$$$$$$$$$$$$$$$XXXXXXXXXXXXXX++++++++++XXXXXXXXXXXOOOO",
"XXXXX$$$$$$$$$$$$$$$$$$$$XXXXXXXXXXX++++++++++++++++XXXXXXXXOOOO",
"XXXXXXX$$$$$$$$$$$$$$$$XXXXXXXXXX++++++++++++++++++++++XXXXXOOOO",
".XXXXXXX$$$$$$$$$$$$$$XXXXXXXXXXX++++++++++++++++++++++XXXXXOOOO",
".XXXXXXXXXXX$$$$$$XXXXXXXXXXXXXXXXXX++++++++++++++++XXXXXXXXOOOO",
"..XXXXXXXXXXXXXXXXXXXXXXXXXXXXXXXXXXXXX++++++++++XXXXXXXXXXXOOOO",
"....XXXXXXXXXXXXXXXXXXXXXX+++XXXXXXXXXXXXXXXXXXXXXXXXXXXXXXOOOOO",
".....XXXXXXXXXXXXXXXXXXXX+++++XXXXXXXXXXXXXXXXXXXXXXXXXXXXOOOOOO",
".........XXXXXXXXXXXX++++++++++++XXXXXXXXXXXXXXXXXXXXXXOOOOOOOOO"
};
