/* XPM */
static char *_27e633367f6463ec5e26886d06bb21buymdF94Zy3vPVFj7[] = {
/* columns rows colors chars-per-pixel */
"64 64 141 2 ",
"   c #000000",
".  c #0D0D06",
"X  c #100F04",
"o  c #121104",
"O  c #1B1906",
"+  c #141314",
"@  c #1D1D1D",
"#  c #211F09",
"$  c #222009",
"%  c #2A270A",
"&  c #37340F",
"*  c #292817",
"=  c #353215",
"-  c #3D3A10",
";  c #252425",
":  c #2C2A2C",
">  c #313131",
",  c #383738",
"<  c #3B3A3B",
"1  c #1B5E20",
"2  c #2E7D32",
"3  c #44411D",
"4  c #534F1F",
"5  c #565116",
"6  c #625B17",
"7  c #625D18",
"8  c #67611B",
"9  c #6B651B",
"0  c #776E1B",
"q  c #77701B",
"w  c #7A711D",
"e  c #7E7621",
"r  c #77772E",
"t  c #787229",
"y  c #3B4843",
"u  c #464646",
"i  c #4D4C48",
"p  c #5D5C46",
"a  c #585858",
"s  c #726F46",
"d  c #606060",
"f  c gray42",
"g  c #737373",
"h  c #7F7E7F",
"j  c #80761E",
"k  c #887926",
"l  c #847F44",
"z  c #519838",
"x  c #22B14C",
"c  c #00C853",
"v  c #56C04A",
"b  c #7ECD49",
"n  c #8E8525",
"m  c #928622",
"M  c #958B22",
"N  c #919029",
"B  c #928B39",
"V  c #A59927",
"C  c #B0A329",
"Z  c #BEAF2C",
"A  c #BCB12C",
"S  c #C1B22D",
"D  c #C9B92E",
"F  c #C3B530",
"G  c #A8E61D",
"H  c #BCE927",
"J  c #D6C735",
"K  c #D3C930",
"L  c #DECE34",
"P  c #D3C63E",
"I  c #E6D335",
"U  c #E5DA34",
"Y  c #ECDA37",
"T  c #E6D638",
"R  c #E8D638",
"E  c #EBDC3E",
"W  c #F0DD37",
"Q  c #EBE73E",
"!  c #E3E83D",
"~  c #EEED3C",
"^  c #F4EF37",
"/  c #F4E23B",
"(  c #F9E639",
")  c #F7EC3C",
"_  c #FFEC3C",
"`  c #FBF53B",
"'  c #FEF93D",
"]  c #878241",
"[  c #8B8B41",
"{  c #938E45",
"}  c #ACA543",
"|  c #A1A14D",
" . c #B7AE44",
".. c #C0B745",
"X. c #C8BD45",
"o. c #AADA47",
"O. c #B1D742",
"+. c #EDDC40",
"@. c #E6E741",
"#. c #EAE741",
"$. c #EEED44",
"%. c #F6E643",
"&. c #F4EB45",
"*. c #FCEE46",
"=. c #FDEB48",
"-. c #FCF740",
";. c #FCF941",
":. c #FBF549",
">. c #FDF94A",
",. c #F6EF56",
"<. c #F9F252",
"1. c #F7F159",
"2. c #D7D27F",
"3. c #00B7EF",
"4. c #8A898A",
"5. c #9D9D9D",
"6. c #A5A5A5",
"7. c #AAAAAA",
"8. c #B4B4B4",
"9. c gray75",
"0. c #D7D38E",
"q. c #E3D79C",
"w. c #FFF48D",
"e. c #FFF494",
"r. c #D3D3AC",
"t. c #D6D4BA",
"y. c #DDF7A0",
"u. c #D8F8AD",
"i. c #D3F9BC",
"p. c #E9E3A5",
"a. c #FFF7A9",
"s. c #FFF9BD",
"d. c #99D9EA",
"f. c #C3C3C3",
"g. c #D8D8D3",
"h. c gray86",
"j. c #E5E4D7",
"k. c #E8E7D8",
"l. c #E1E1E1",
"z. c gray92",
"x. c #F1F1F1",
/* pixels */
"2 2 2 u u u u u u u u u u u u u u i.i.i.i.u u u u u u u u u u u u u u 2 2 u u u u u u u u 2 2 2 2 u u u u u u c c c c c c c c c ",
"2 2 u u u u u u u u u u u u u u u u i.i.u u u u u u u u u u u u u u u u 2 u u u u u u u u 2 2 2 u u u u u u u u c c c c c c c c ",
"2 u u u u u u u u u u u u u u u u u u u u u u u u u u i.i.u u u u u u u u u u u u u u u u 2 2 u u u u u u u u u u c c c c c c c ",
"u u u u u u u u x x x x u u u u u u u u u u u u u i.i.i.i.i.i.u u u u u u u u u u u u u u u 2 u u u u u u u u u u c c c c c c c ",
"u u u u u u x x x x x x x x u u u u u u u u u u i.i.i.i.i.      u u u u u u u u u u u u u u u u u u u u u u u u u u c c c c c c ",
"u u u u u x x x x x x x x x x u u u u u u u u i.i.i.i.          i.u u u u u u u u u u u u u u u u u u x     u u u u c c c c c c ",
"u u u u x x x x x x x x x x x x u u u u u u u i.i.i.            i.u u u u u u u i.i.u u u u u u u u         u u u u c c c c c c ",
"u u u x x x x x x x     x x x x x u u u u u i.i.i.i.    i.i.    i.i.u u u u u u i.i.u u u u u u             u u u u u c c c c c ",
"u u u x x x x x x       x x x x x u u u u u i.i.i.i.i.i.i.i.    i.i.u u u u u u i.i.u u u u               x u u u u u c c c c c ",
"u u x x x x x x           x x x x u u u u u i.i.i.i.i.i.i.i.    i.i.i.u u u u u i.i.u u u         u x     x u u u u u c c c c c ",
"u u x x x x x x     x     x x x x u u u u u i.i.i.i.i.i.i.i.      i.i.u u u u i.i.i.i.u u     u u x       x x u u u u c c c c c ",
"u u u x x x x       x       x x x u u u u u i.i.i.i.i.i.i.i.i.    i.i.u u u u i.i.i.i.u u u u u u x     x x x u u u u c c c c c ",
"u u u x x x       x x x     x x x u u u u u i.i.i.i.i.i.i.i.i.    i.i.u u u u i.i.i.i.u u u u u u       x x x u u u u u c c c c ",
"u u u u x x     x x x x       x u u u u u u i.i.i.i.i.i.i.i.i.    i.i.u u u u i.i.i.i.u u u u u u     x x x x u u u u u c c c c ",
"u u u u u x x x x x x x x     u u u u u u u i.i.i.i.i.i.i.i.i.    i.u u u u u i.i.i.i.u u u u u u     x x x x u u u u u c c c c ",
"u u u u u u x x x x x x x       u u u u u u i.i.i.i.i.i.i.i.i.    i.u u u u u i.i.i.i.u u u u u       x x x x x u u u u c c c c ",
"u u u u u u u u x x x x u u     u u u u u u u i.i.i.i.i.i.i.i.    u u u u u u i.i.i.i.u u u u u     x x x x x x u u u u c c c c ",
"G u u u u u u u u u u u u u       u u s s p s u.u.y.# # - # - -                 i.i.i.u u u u u     x x x x x x u u u u c c c c ",
"G G u u u u u u u u u u u u u     s s l {       5 # - # - -   -             - - - - #     u u       x x x x x x u u u u c c c c ",
"G G G u u u u u u u u u u u u   - n e           F / J 1.*.<.:./ | .. .|  .} [ 8 % $ -             x x x x x x x u u u u c c c c ",
"G G G G G u u u u u u u u u u G             :.=.:.P +.,.*.%.} %... .....X.B k t N O r ] 9 #         x x x x x x u u u u c c c c ",
"G G G G G G G G G G G G G G             _ _ _ _ _ _ _ _ _ _ _ _ _ _ _ _ _ _ _ O   + 7.* ] | {           x x x x u u u u c c c c ",
"G G G G G u u u u u u G G         ) _ _ _ _ _ _ _ _ _ _ _ _ _ _ _ _ _ _ Y A 0   < g h 5.2.s | } v - -     x x x u u u u c c c c ",
"G G G G u u u u u u u   - 9 - H H _ _ _ _ _ _ _ *._ _ _ _ _ _ _ _ _ _ _ ( m o ; +     < g.' ' } o.b v -       x u u u u c c c c ",
"G G G u u u u u u u   9 n 9 ` ` ) _ _ _ _ _ _ _ _ _ _ _ _ _ _ _ _ _ _ _ / m . : g f.8.. @ ' >.' &.$.~ b 9 -     u u u u c c c c ",
"G G G u u u u u u   9 9 E ' ^ ' ' :._ _ _ _ _ _ _ *._ _ _ _ _ _ _ _ _ _ S 6 + ; ; h.l..   _ _ _ _ o.&.Q v v -     u u u u c c c ",
"G G u u u u u u u 9 9 ' -.E _ _ _ _ _ _ _ _ _ _ _ _ _ _ _ *.*._ _ _ _ _ _ j + ; g 9.7.. ; _ _ _ _ _ _ ' >.v b -   u u u u c c c ",
"G G u u u u u 1 - n _ E E _ _ _ _ _ _ _ _ _ _ _ _ _ _ _ _ _ _ _ _ _ _ _ L 7 i h +     a j._ _ _ _ _ _ _ _ >.z 9     u u u c c c ",
"G G u u u u u     _ E E _ _ _ _ _ _ _ _ _ _ _ _ _ _ _ _ _ _ _ _ _ _ _ _ A S = l.8.5.6.z.e._ _ _ _ _ _ _ _ _ >.b -   u u u c c c ",
"G u u u u u 1     _ s _ _ _ _ _ _ _ _ _ _ _ _ _ _ _ _ _ _ _ _ _ _ _ _ _ _ R w 3 p.a.a.e.=._ _ _ _ _ _ _ _ _ _ @.-     u c c c c ",
"G u u u u u 1     Q *.*._ _ _ _ _ _ _ _ _ _ _ _ _ _ _ _ _ _ _ _ _ _ _ _ _ L Z R / _ _ _ _ _ _ _ _ _ _ _ _ _ _ ;.s     u c c c c ",
"G u u u u u 1     _ _ *.*._ _ _ _ _ _ ' _ _ _ _ _ _ _ _ _ _ _ _ _ _ _ _ _ _ _ _ _ _ _ _ _ _ _ _ _ _ _ _ _ _ _ >.p     u c c c c ",
"G u u u u 1 1     _ _ _ _ _ _ ' ' _ _ _ _ _ _ *._ _ _ _ _ _ _ _ _ _ _ _ _ _ _ _ _ _ _ _ _ _ _ _ _ _ _ _ _ _ _ &.u     u c c c c ",
"G u u u u 1 1     _ _ _ _ _ _ _ _ +.+._ _ _ _ _ _ _ _ _ _ _ _ _ _ _ _ _ _ _ _ _ _ _ _ _ _ _ _ _ _ _ _ _ _ _ _ O.u     u c c c c ",
"G u u u u 1 1     _ _ _ _ _ _ _ _ _ _ _ _ _ _ _ _ _ _ _ _ _ _ _ _ _ _ _ _ I D Y ( ' ;._ _ _ _ _ _ _ _ _ _ _ ;.!       u c c c c ",
"G u u u u 1 1     T _ _ _ _ _ _ _ _ _ _ _ _ _ *._ _ _ _ _ ' _ _ _ _ _ _ _ U q 4 q.r.t.w.=._ _ _ _ _ _ _ _ v @.!     u u c c c c ",
"G u u u u 1 1     ( T _ _ _ _ _ _ _ _ _ _ _ _ _ _ _ _ ' _ _ _ _ _ _ _ _ A K = l.f.6.7.x.e._ _ _ _ _ _ _ *.x ! L     u u c c c c ",
"G u u u u 1 1     ( _ _ ' _ _ _ _ _ _ _ _ _ _ _ _ _ _ _ _ _ _ _ _ _ _ _ J 7 i 4.+     d k._ _ _ _ _ _ #.;._ &.V   u u u c c c c ",
"G u u u u u 1       L _ _ _ _ _ _ _ _ _ _ _ _ _ _ _ _ _ _ _ _ _ _ _ _ _ _ j + ; g 8.5.. > _ _ _ _ _ _ _ ;.x       u u u c c c c ",
"G u u u u u 1 1 1 1     L _ _ _ _ _ _ _ _ ' _ _ _ _ _ _ _ _ _ _ _ _ _ _ S 6 + ; ; h.l..   _ _ _ _ _ _ ;.        u u u u c c c c ",
"G u u u u u 1 1 1 1 u       - H E -.-._ _ _ _ _ _ _ _ _ _ _ _ _ _ _ _ _ W m . : f f.8.. @ _ _ %.` _ _ _ L     u u u u u c c c c ",
"G G u u u u u 1 1 u u u u         u u u E ;.>.' _ _ _ _ _ _ _ _ _ _ _ _ _ M X ; +     > g.%.} s ( _ L     x x u u u u u c c c c ",
"G G u u u u u 1 1 u u u u u           u u i.:.>._ _ _ _ _ _ _ _ _ _ _ _ Y C 9   , f g 5.0.s u L L       x x x u u u u c c c c c ",
"G G u u u u u u u u u u u u G G             i.u s s E ;._ _ _ _ _ _ _ _ _ _ ( O . @ 7.y &             x x x x u u u u c c c c c ",
"G G G u u u u u u u u u u G G G                       3.u u s s >._ _ _ _ U M 8                         x x u u u u u c c c c c ",
"G G G u u u u u u u u u u G G       u u u                           - # T                   u u u u       x u u u u u c c c c c ",
"G G G G u u u u u u u u u u u     u u u u u u u u u                               d.u u u u u u u u x       u u u u u c c c c c ",
"G G G G G u u u u u u u u u       u u u u u u u u u 3.3.3.u u u u     d.d.d.d.d.d.u u u u u u u u u u x     u u u u c c c c c c ",
"G G G G u u u u u u u u u u     u u u u u u u u u u 3.3.3.u u u u     u u d.d.u u u u u u u u u u u u x       u u u c c c c c c ",
"G G u u     u u u u u u u       u u u u u u u u u u u u 3.3.u u u     u u u u u u u u u u u u u u u u u u       u u c c c c c c ",
"G u u u         u u u u s.    s.s.s.u u u u u u u u u u u 3.3.u u     u u u u u u u u u u 2 2 u u u u u u u       c c c c c c c ",
"G u u u u         s.s.s.      s.s.s.s.s.s.s.u u u u u u u 3.3.3.u     u u u u u u u u u u u u u u u u u u u u     c c c c c c c ",
"u u u u u u u       s.s.    s.s.s.s.s.s.s.s.s.u u u u u u u 3.3.3.    u u u u u u u u u u u u u u u u u u u u       c c c c c c ",
"u u u u u s.s.s.            s.s.s.s.s.s.s.s.s.s.s.u u u u u u u u     u u u u u u u u u u u u u u u u u u u u       c c c c c c ",
"u u u u u s.s.s.s.        s.s.s.s.s.s.s.s.s.s.s.s.u u     u u u u     u u u u u u u u u u u u u u u u u u u       u u c c c c c ",
"u u u u u s.s.s.s.s.s.    s.s.s.s.s.s.s.s.s.s.s.s.u u         u u     u u u u G G G G G G G G G G u u u u       u u u u c c c c ",
"u u u u u s.s.s.s.s.s.s.s.s.s.s.s.s.s.s.s.s.s.s.s.u u u               u G G G G G G G G G G G G G G G G       u u u u u c c c c ",
"u u u u u u u s.s.s.s.s.s.s.s.s.s.s.s.s.s.s.s.u u u u u u u           G G G G G G G G G G G G G G G G G     G u u u u u c c c c ",
"2 u u u u u u u s.s.s.s.s.s.s.s.s.s.s.s.s.s.u u u u u u u u u u       G G G G G G G G G G G G G G G G G G G G u u u u u c c c c ",
"2 u u u u u u u u u u u s.s.s.s.s.s.u u u u u u u u u u u u u u u u u u G G G G G G G G G G G G G G G G u u u u u u u u c c c c ",
"2 2 u u u u u u u u u u u u u u u u u u u u u u u u u u u u u u u u u u u u u G G G G G G G G G G u u u u u u u u u u u c c c c ",
"2 2 2 2 u u u u u u u u u u u u u u u u u u u u u u G G G u u u u u u u u u u u u u u u u u u u u u u u u u u u u u u c c c c c ",
"2 2 2 2 2 u u u u u u u u u u u u u u u u u u u u G G G G G u u u u u u u u u u u u u u u u u u u u u u u u u u u u c c c c c c ",
"2 2 2 2 2 2 2 2 2 u u u u u u u u u u u u G G G G G G G G G G G G u u u u u u u u u u u u u u u u u u u u u u c c c c c c c c c "
};
