/* XPM */
static char *d62df603a62443539cd40b13bf1f8e025XqYOMUXtsfcwtw6[] = {
/* columns rows colors chars-per-pixel */
"64 64 12 1 ",
"  c black",
". c #2E7D32",
"X c #464646",
"o c #E91E63",
"O c #22B14C",
"+ c #00C853",
"@ c #A8E61D",
"# c #3D5AFE",
"$ c #009688",
"% c #00B7EF",
"& c #D3F9BC",
"* c #FFF9BD",
/* pixels */
"...XXXXXXXXXXXXXX&&&&XXXXXXXXXXXXXX..XXXXXXXX....XXXXXX+++++++++",
"..XXXXXXXXXXXXXXXX&&XXXXXXXXXXXXXXXX.XXXXXXXX...XXXXXXXX++++++++",
".XXXXXXXXXXXXXXXXXXXXXXXXXX&&XXXXXXXXXXXXXXXX..XXXXXXXXXX+++++++",
"XXXXXXXXOOOOXXXXXXXXXXXXX&&&&&&XXXXXXXXXXXXXXX.XXXXXXXXXX+++++++",
"XXXXXXOOOOOOOOXXXXXXXXXX&&&&&&&&XXXXXXXX#XX#X##XXXXXXXXXXX++++++",
"XXXXXOOOOOOOOOOXXXXXXXX&&&&&&&&&&XXXXX###########XXOOXXXXX++++++",
"XXXXOOOOOOOOOOOOXXXXXXX&&&&&&&&&&XX################OOXXXXX++++++",
"XXXOOOOOOOOOOOOOOXXXXX&&&&&&&&&&&&##X##############OOOXXXXX+++++",
"XXXOOOOOOOOOOOOOOXXXXX&&&&&&&&&&&###################OOXXXXX+++++",
"XXOOOOOOOOOOOOOOOXXXXX&&&&&&&&&&&&##################OOXXXXX+++++",
"XXOOOOOOOOOOOOOOOXXXXX&&&&&&&&&&#&&#################OOOXXXX+++++",
"XXXOOOOOOOOOOOOOOXXXXX&&&&&&&&#&####################OOOXXXX+++++",
"XXXOOOOOOOOOOOOOOXXXXX&&&&&&&&&#####################OOOXXXXX++++",
"XXXXOOOOOOOOOOOOXXXXXX&&&&&&&&&#####################OOOXXXXX++++",
"XXXXXOOOOOOOOOOXXXXXXX&&&&&&&&&#####################OOOXXXXX++++",
"XXXXXXOOOOOOOOXXXXXXXX&&&&&&&&####################OOOOOOXXXX++++",
"XXXXXXXXOOOOXXXXXXXXXXX&&&&&&&####################OOOOOOXXXX++++",
"@XXXXXXXXXXXXXXXXXXXXXX&&&&&&####################OOOOOOOXXXX++++",
"@@XXXXXXXXX    XXXXXXXXX&&&&&##################XOOOOOOOOXXXX++++",
"@@@XXXXXXXX      @@XXXXXX&&&#############&###XXXOOOOOOOOXXXX++++",
"@@@@@XX           @XXXXXXXX&##X###############XXOOOOOOOOXXXX++++",
"@@@@@@       oo    XXXXXXXX#XX###############XXXOOOOOOOOXXXX++++",
"@@@@     ooooooo   oXXXXXXXXX#############X##XXXOOOOOOOOXXXX++++",
"@@@@   oooooooooo   XXXXXXXX################XXXXOOOOOOOOXXXX++++",
"@@@   oooooooooooo   XXXXXXX############# #     OOOOOOOOXXXX++++",
"@@@   oooooooooooo    XXXXX###############           OOOXXXXX+++",
"@@X  ooooooooooooo     XXXX  ##############$$$$        OXXXXX+++",
"@@X   oooooooooooo  o  XX   ##############$$$$$$$$$$     XXXX+++",
"@@X    ooooooooooo  $       $#############$$$$$$$$$$$$    XXX+++",
"@XXX    ooooooooo   $$    $$$#############$$$$$$$$$$$$$$   X++++",
"@XXXX   ooooooooo   $$   $$$##############$$$$$$$$$$$$$$$   ++++",
"@XXXX                   $$$$##############$$$$$$$$$$$$$$$$  ++++",
"@XXXX                    $$$$#############$$$$$$$$$$$$$$$$  ++++",
"@XXX   oooooooooo        $$$$$###########X#$$$$$$$$$$$$$$$  ++++",
"@XXX   ooooooooooo       $$$$##############$$$$$$$$$$$$$$   ++++",
"@XXX  ooooooooooooo       $$##############$$$$$$$$$$$$$$   X++++",
"@XXX  oooooooooooooo        #############X##$$$$$$$$$$    XX++++",
"@XX   ooooooooooooooo   X  # ############X##$$$$$$$$     XXX++++",
"@XX   ooooooooooooooo  &XXX# ##############X#$$        OXXXX++++",
"@XX  oooooooooooooooo  &XXXX############### #        OOXXXXX++++",
"@XX   ooooooooooooooo  XXXXX############# ##    XOOOOOOXXXXX++++",
"@@X    oooooooooooooo  XXXXX##################XXXOOOOOOXXXXX++++",
"@@XX    oooooooooooo   XXXXXX################XXXXOOOOOOXXXX+++++",
"@@XXX     oooooooooo   XXXX%X################XXXXOOOOOOXXXX+++++",
"@@@XXX      ooooooo   XXXXX%X#################XXXXOOOOXXXXX+++++",
"@@@XXXXX              XXXXX%XX##################XXOOOOXXXXX+++++",
"@@@@XXXXXXX          XXXXXX%####################XXOOOOXXXXX+++++",
"@@@@@XXXXXXXXXXXXXXXXXXXXX%%%##################XXXXOOXXXXX++++++",
"@@@@XXXXXXXXXXXXXXXXXXXXXX%%%X##################XXXOOXXXXX++++++",
"@@XXXXXXXXXXXXXXXXXXXXXXXXXX%###X################XXXXXXXXX++++++",
"@XXXXXXXXXXX******XXXXXXXXXXX%###################XXXXXXXX+++++++",
"@XXXXXXX**************XXXXXXX%##################XXXXXXXXX+++++++",
"XXXXXXX****************XXXXXXX##%###############XXXXXXXX++++++++",
"XXXXX********************XXXXX###################XXXXXXXXX++++++",
"XXXXX********************XXXXXX##################XXXXXXXXXX+++++",
"XXXXX********************XXXXXXX################@XXXXXXXXXXX++++",
"XXXXX********************XXXXXXXX##############@@@@@XXXXXXXX++++",
"XXXXXXX****************XXXXXXXXX##@###########@@@@@@@@@XXXXX++++",
".XXXXXXX**************XXXXXXXXXXX@##@#########@@@@@@@@@XXXXX++++",
".XXXXXXXXXXX******XXXXXXXXXXXXXXXX###@#######@@@@@@@XXXXXXXX++++",
"..XXXXXXXXXXXXXXXXXXXXXXXXXXXXXXXXX#########@@@@@XXXXXXXXXXX++++",
"....XXXXXXXXXXXXXXXXXXXXXX@@@XXXXXXXX#X###X#XXXXXXXXXXXXXXX+++++",
".....XXXXXXXXXXXXXXXXXXXX@@@@@XXXXXXX#XX#XXXXXXXXXXXXXXXXX++++++",
".........XXXXXXXXXXXX@@@@@@@@@@@@XXXXXXXXXXXXXXXXXXXXXX+++++++++"
};
