/* XPM */
static char *_e1d30c52a2644b8b8edf22d8232f7bagopVIgE9dw6ZewJg[] = {
/* columns rows colors chars-per-pixel */
"64 64 11 1 ",
"  c #1B5E20",
". c #2E7D32",
"X c #464646",
"o c #22B14C",
"O c #00C853",
"+ c #A8E61D",
"@ c #00B7EF",
"# c #D3F9BC",
"$ c #FFF9BD",
"% c #99D9EA",
"& c white",
/* pixels */
"&&.XXXXXXXXXXXX&&&###XXXXXXXXXX&&XX..XXXXXXXX.&&.XXXXXXOOOOOO&&&",
"&&&XXXXXXXXXXXXX&&##XXXXXXXXXXX&&XXX.XXXXXXXX&&&XXXXXXXXOOOO&&&O",
".&&&XXXXXXXXXXXX&&&XXXXXXXX##XX&&X&&&&&XXXXXX&&XXXXXXXXXXOO&&&OO",
"XX&&&XXXooooXXXXX&&&&&&&&&&&###&&X&&&&&&&&&X&&&XXXXXXXXXXO&&&OOO",
"XXX&&&ooooooo&&&&&&&&&&&&&&&###&&XXXXX&&&&&X&&X&&XXXXXXXX&&&OOOO",
"XXXX&&&&ooo&&&&&&X&&XXX########&&XXXXXXXXXX&&&X&&&&ooXXX&&&OOOOO",
"XXXXo&&&&oo&&&ooXX&&&XX########&&XXXXXXX##X&&XXX&&&&&XX&&&OOOOOO",
"XXXoooo&&&oooooooXX&&&#########&&#XXXXXX##X&&XXXXX&&&o&&&XXOOOOO",
"XXXoooo&&&&ooooooX&&&&&&&&#####&&#XXXXXX##&&&XXXXXooo&&&XXXOOOOO",
"XXoooo&&&&&&oooo&&&&&&&&&&&&&&&&&&&&&&&&&&&&&XXXXXoo&&&XXXXOOOOO",
"XXoooo&&oo&&&o&&&&&XX&&##&&&&&&&&&&&&&&&&&&&&XXXXoo&&&&XXXXOOOOO",
"XXXoo&&&ooo&&&&&&XXXX&&&#######&&&#XXXX##&&&XXXXXoo&&&&&XXXOOOOO",
"XXXoo&&ooooo&&&ooXXXXX&&########&&#XXXX#&&&&&&XXXo&&&o&&&XXXOOOO",
"XXXX&&&oooooo&&&XXXXXX&&&#######&&#XXXX#&&#&&&&XX&&&ooo&&XXXOOOO",
"XXXX&&oooooooo&&&X&&XX#&&#######&&XXXXX&&&#XX&&&&&&oooo&&&XXOOOO",
"&&X&&&ooooooooX&&&&&XX#&&&######&&XXXXX&&##XXX&&&&oooooo&&&XOO&&",
"&&&&&XXXooooXXXX&&&&XXX#&&&#####&&XXXXX&&##XXX&&&&ooooooX&&X&&&&",
"+&&&&&XXXXXXXXXX&&&&&XX##&&&&&##&&&&&&&&&##XX&&&&&ooooooXX&&&&&O",
"++&&&&&&XXXXXXX&&&X&&&XX#&&&&&##&&&&&&&&###X&&&X&&&ooooo&&&&&OOO",
"+++&&&&&&&&XXXX&&++X&&&XX#&&###X&&XXX&&&###&&&XXo&&ooo&&&&&XOOOO",
"+++&&XX&&&&&&&&++++XX&&&XX&&&XXX&&XXX&&###&&&XXXo&&&&&&&&&&XOOOO",
"+++&&+++++&&&&&+++XXXX&&&XX&&XXX&&XX&&&X#&&&XXXXoo&&&&&oX&&XOOOO",
"+++&&XXXXXX+&&&&&&XXXXX&&&X&&&&&&&&&&&XX&&&XXXXX&&&&&oooX&&XOOOO",
"+++&&XXXXXXX+&&&&&&&XXXX&&XX&&&&&&&&&&XX&&XXXX&&&&&&ooooX&&&OOOO",
"+++&&XXXXXXXX&&++&&&&&XXXXXX&&&X&&o&&&XX##XX&&&&&o&&ooooXX&&OOOO",
"+++&&XXXXXXXX&&++XX&&&&&XXX&&&oo&&o&&&&XXX&&&&&Xoo&&ooooXX&&XOOO",
"++X&&XXXXXXXX&&++XXXX&&&&&&&&&oo&&o&&&&&&&&&&XXXoo&&ooooXX&&XOOO",
"++X&&XX  XXXX&&+XXXXX##&&&&&&&&&&&&&&X&&&&&XXXXXoo&&ooooXX&&XOOO",
"++X&&XX  XXXX&&+XXXXX##XXX&&o&&&&&&&oX&&XXXXXXXXoo&&ooooX&&&XOOO",
"+XX&&X    XX&&X+XXXXX##XXX&&o&&&&&&ooX&&XXXXXXXXoo&&ooooX&&XOOOO",
"+XX&&X    XX&&&&&&&&&&&&&&&&oo&&&&&ooX&&&&&&&&&&&&&&&oooX&&XOOOO",
"&&&&&&&&&&&&&&&&&&&&&&&&&&&&&&&&&&&&&&&&&&&&&&&&&&&&&&&&&&&&&&&&",
"&&&&&&&&&&&&&&&+XXXX####XX&&&&&&&&&&&&&&&oooXXXXo&&&&&&&&&&&&&&&",
"+XXX&&     XX&&+XXXX####XX&&oo&&&o&&&X&&XXooXXXXo&&oooooX&&XOOOO",
"+XXX&&     XX&&+XXXX###&&&&&oo&&&XX&&X&&&&XXXXXXo&&oooooX&&XOOOO",
"+XXX&&     XXXX+XXXX#&&&&&&&&&&&&XXXX&&&&&&&XXXX&&&oooooX&&XOOOO",
"+XXX&&     XX&&+XXX&&&&&XXX&&&&&&XXX&&&XX&&&&&XX&&ooooooX&&XOOOO",
"+XXX&&     XX&&+X&&&&&##XXXX&&&&&XX&&&%XXXX&&&&&&&ooooooX&&XOOOO",
"+XXX&&    XXX&&&&&&&####&&X&&&&&&&&&&&%%&&XXX&&&&&ooooooX&&XOOOO",
"+XXX&&    XXX&&&&&XX###&&&X&&&&&&&&&&&%%&&&XXXX&&&&&oooXX&&XOOOO",
"+XXX&&    X&&&&&XXXXX#&&&XX&&XX&&&%%&&&%%&&&XX&&&&&&&ooXX&&XOOOO",
"++XX&&X  &&&&&&&XXXXX&&&XX&&&XX&&&%%%&&%%%&&&&&&Xoo&&&&XX&&XOOOO",
"++XX&&X&&&&&XX&&&XXX&&&XXX&&XXXX&&%%%&&&%%%&&&&XXooo&&&&&&&OOOOO",
"++XX&&&&&&XXXX+&&&&&&&#XX&&&XXXX&&%%%%&&%%%%&&&XXooooo&&&&&OOOOO",
"+++&&&&&&XXXX+++&&&&&XXXX&&@XXXX&&%%%%&&%&&&X&&XXXooooX&&&&&&OOO",
"+&&&&&X&&&XXX++++&&&&&&&&&&@XXXX&&%%%%&&&&&&X&&&XXoooo&&&X&&&&&O",
"&&&&XXXX&&XXXXXX&&&&&&&&&&&&XXXX&&%%%%&&&&XXXX&&&Xoooo&&XXXO&&&&",
"&&+++XXX&&&XXXX&&&XXXXX&&&&&&&&&&&&&&&&&&&XXXXX&&&Xoo&&&XXOOOO&&",
"++++XXXXX&&XXX&&&XXXXXX&&X@&&&&&&&&&&&&X&&XXXXXX&&&oo&&XXXOOOOOO",
"++XXXXXXX&&&X&&&XXXXXX&&&XXX@@XX&&XXXXXX&&&XXXXXX&&&&&&XXXOOOOOO",
"+XXXXXXXXX&&&&&$$$XXXX&&XXXXX@@X&&XXXXXXX&&XX..XXX&&&&XXXOOOOOOO",
"+XXXXXXX$$&&&&$$$$$$$&&&XXXXX@@&&&XXXXXXX&&XXXXXXXX&&&XXXOOOOOOO",
"XXXXXXX$$&&&&&&&$$$$&&&XXXXXXX@&&XXXXXXXX&&&XXXXX&&&&&&XOOOOOOOO",
"XXXXX$$$&&&$$&&&&&$$&&$$$XXXXXX&&XXXXXXXXX&&XXX&&&&&X&&&XXOOOOOO",
"XXXXX$$&&&$$$$$&&&&&&&$$$XXXXXX&&XXXXXXXXX&&&&&&&&XXXX&&&XXOOOOO",
"XXXXX$&&&$$$$$$$$&&&&$$$$XXXXXX&&XXXXXX++++&&&&&+XXXXXX&&&XXOOOO",
"XXXXX&&&$$$$$$$$$$&&&&&&$XXXXXX&&XXX+++++++&&&++++++XXXX&&XXOOOO",
"XXXX&&&$$$$$$$$$$$&&$&&&&&XXXXX&&&&&&&&&&&&&&&&&&&&++++X&&&XOOOO",
".XX&&&XX$$$$$$$$$&&&$$X&&&&&XXX&&&&&&&&&&&&&&&&&&&&++++XX&&&OOOO",
".X&&&XXXXXXX$$$$$&&XXXXXX&&&&&X&&XXX++++++++&&&+++++XXXXXX&&&OOO",
".&&&XXXXXXXXXXXX&&&XXXXXXXX&&&&&&XXXXXX++++++&&++XXXXXXXXXX&&&OO",
"&&&.XXXXXXXXXXXX&&XXXXXXXX+++&&&&XXXXXXXXXXXX&&&XXXXXXXXXXXO&&&O",
"&&...XXXXXXXXXX&&&XXXXXXX+++++X&&XXXXXXXXXXXXX&&XXXXXXXXXXOOO&&&",
"&........XXXXXX&&XXXX++++++++++&&XXXXXXXXXXXXX&&XXXXXXXOOOOOOO&&"
};
