/* XPM */
static char *b48256e42b924675b001ef01ccd80dadqoSmY9kxNUpUYAPe[] = {
/* columns rows colors chars-per-pixel */
"64 64 3 1 ",
"  c black",
". c #990030",
"X c #ED1C24",
/* pixels */
"                                                                ",
"                                                                ",
"      ..                                                        ",
"    ..  ...                      .                              ",
"   .X.XX..X.XXXXXXXXXXXXXXXXX.......XXXXXXXXXXXXXXXXXXXXXXXX    ",
"  ...X..X....XXXXXXXXXXXXXXX......X.X.XXXXXXXXXXX.XXXXXXXXXX    ",
"  ..XX.X...XXXXXXXXXXXXXXXX.....X.XX.XXXXXXXXX..XXX.XXXXXXXX    ",
"  ...X.XX....XXXXXX..XXXXXX...XX.X.X...XXXXX..X.......XXXXXX    ",
"  ..X.XX.XX...XX..X..X..XXX.X.X........XXXXXX..X....X.XXXXXX    ",
" ....X..X.....XX..X...XXXX.......X.X.XXXXXXX.XX..X....XXXXXX    ",
"  . .X..XX......X....XXX..X....X.....XXXXXXXXXX.........XXXX    ",
"  .....XX..X........X.....X.........X.XXXXX.X.....X.X.XXXXXX    ",
"   .................XX..XXX...X.......XXXXX.X....XX....XXXXX    ",
"    .X.X......X.....XXX.XXXX....X..XXXXXXXXX...X..X......XXX    ",
"    XXX.X...........XXX.XX....X......X.XXX.X.X..X..X.....XXX    ",
"    XXXX..X...X.....X.X......XX....XX...X...X.......X...XXXX    ",
"    XXXX...X.X...X.X....XXXX....X..X.X..X....X..X....XXXXXXX    ",
"    XXXX....XX...........XXXX..XX.....X..X..........XX.XXXXX    ",
"    XX......XX..........XXXXX..X..X...XX.XX.X....XX.XXXXXXXX    ",
"    ..XXX..X......XXX.XXXXXXXX....XX...X..X.XX...XXX.XXXXXXX    ",
"   ...XXX.......XXXXXXXXXXXXXX....XXXXX.X.....XXXXXXXXXXXXXX    ",
"    ......X..XXXXXXXXXXXXXXXXXXXXXXXX......XX..XXXXXXXXXXXXX    ",
"   ....X..X..X.XXXXXXXXXXXXXXXXXXXXXX.X....X.X.XXXXXXXXXXXXX    ",
"    ...X.X..X.XXXXXXXXXXXXXXXXXXXXXXXX.XXX..X.XX.XX.XXXXXXXX    ",
"    XXXXXX...XXXXXXX     X XX X    XXXX.XX.........XXXXXXXXX    ",
"    X.....X...XXXXXXXX XXX XX X XXXXXXXXXXX.X..XX..XX.XXXXXX    ",
"    X........XXXXXXXXX XXX    X   XXXXXXX.XXX...XX..XXX.XXXX    ",
"    ..........XXXXXXXX XXX XX X XXXXXXXXXXXX.....X.X.X...XXX    ",
"    ...X...X.XXXXXXXXX XXX XX X    XXXXXXXXX...XXX...X.XXXXX    ",
"    .......XXX..XXXXXXXXXXXXXXXXXXXXXXXXXXXXX.XX..XX.XX.XXXX    ",
"    ......XX.X...XXX XXX XX  XX XXXX XXXXXXXX.X.X...X...XXXX    ",
"   .X.XX....X...X..X XXX X XX X XXXX XXXXXXXX.XX.XXX.X.XXXXX    ",
"   .....X.X....X..XX . X X    X XXXX XXXXXXXXXXXXXX...X.XXXX    ",
"    XXX.X.X..X.X..... X  X XX X XXXX XXXXXXXXX..X..XXXXXXXXX    ",
"    X.XX.X.....XX... .XX X XX X    X    XXXXXXXXXX.X.XXXXXXX    ",
"    X..X......X.X.....XXXXXXXXXXXXXXXXXXXXXXXXXXXX.XXXXXXXXX    ",
"    XX.X......XX..XXX..XXXXXXXXXXXXXXXXXXXXXXXX........XXXXX    ",
"    XXXXXXX......XX....XXXXXXXXXXXXXXXXXXXXXXX.X...X.X..XXXX    ",
"    XXXXXX.........X..XXXXXXXXXXXXXXXXXXXXXXX.X.X........XXX    ",
"    XXXXXXXXXX...X..XXXXXXX..XXXXXXXXXXXXXXXX........X..X.XX    ",
"    XXXXXXX..X.........XX.X.XX..XXXXXXXXXXXXXXX..X..X.....XX    ",
"    XXXXXXXXX..X...XXXXX.........XXXXXXXXXXXX......XX..X..XX    ",
"    XXX.XXXX.......XX..X.X.X..XX.XXXXXXXXXXXX.....X.....XX.X    ",
"    XXX....XX......X..XX......XXX.XXXXXXXXXXXXX.........XX.X    ",
"    XX.X..X....X....X........X...XXXXX......X....X.X.X....XX    ",
"    XXX.......................X...XXXXX..X..X..X.X.....X..XX    ",
"    ..X..XX....X..X...........X...XXX...X......X...X....XXXX    ",
"    XX.....X...................X..XX....X.......X.XX...XXXXX    ",
"    ....X........................XX.....X.....XXXXXXXXXXXXXX    ",
"    XXX..XX.....................XXXX.X......X...XXXXXXXXXXXX    ",
"    ....XX...................X..XXX.........X..XXX.XXXXXXXXX    ",
"    ..X........................XXXX.X..X.......X.X...XXXXXXX    ",
"    XXX...XX....XX............X.XXXX..X....X..X..XXXXX..XXXX    ",
"    X...X.......XX.X...........XXXXX.....X.....XX..X..X.XXXX    ",
"    XXXXXX.XXX....XXX.......XX.XXXXXX..........X.....XX.XXXX    ",
"    XXXXXXXXXXXXXXX..X.....X..XXXXXXXX.X.X.X.....XXXX....XXX    ",
"    XXXXXXXXXXXXXXXXX..X.X...X.XXXXXXXX.XXXX.X..X...X....XXX    ",
"    XXXXXXXXXXXXXXXXXXXXXXX...XXXXXXXXXXXXXX...X..X.X...XXXX    ",
"    XXXXXXXXXXXXXXXXXXXXXXXXXXXXXXXXXXXXXXXXX..XX.XXX.XXXXXX    ",
"    XXXXXXXXXXXXXXXXXXXXXXXXXXXXXXXXXXXXXXXXX.X.XX.X.XXXXXXX    ",
"                                               .. ... .         ",
"                                                .....           ",
"                                                                ",
"                                                                "
};
